# xmcd
#
# Track frame offsets:
#	150
#	22035
#	40240
#	62620
#	82150
#	104758
#	126325
#	148655
#	171935
#	195197
#
# Disc length: 2973 seconds
#
# Revision: 1
# Processed by: cddbd v1.5.2PL0 Copyright (c) Steve Scherf et al.
# Submitted via: audiograbber 1.83.01
#
DISCID=8f0b9b0a
DTITLE=Harry Hmura - Passion
DYEAR=2002
DGENRE=
TTITLE0=After Cancun
TTITLE1=Fever Agogo
TTITLE2=Passion
TTITLE3=Always In My Heart
TTITLE4=Dream Blue
TTITLE5=Lucky Lady
TTITLE6=Never far Away
TTITLE7=Nineteen Summres
TTITLE8=Little Flower
TTITLE9=Feel The Sparks
EXTD=
EXTT0=
EXTT1=
EXTT2=
EXTT3=
EXTT4=
EXTT5=
EXTT6=
EXTT7=
EXTT8=
EXTT9=
PLAYORDER=
